<?xml version="1.0" encoding="utf-8"?>
<!-- Generator: Adobe Illustrator 25.0.0, SVG Export Plug-In . SVG Version: 6.00 Build 0)  -->
<svg version="1.1" id="Layer_1" xmlns="http://www.w3.org/2000/svg" xmlns:xlink="http://www.w3.org/1999/xlink" x="0px" y="0px"
	 viewBox="0 0 165.9 114.1" style="enable-background:new 0 0 165.9 114.1;" xml:space="preserve">
<style type="text/css">
	.st0{fill:#FFFFFF;}
</style>
<g id="fertig">
	<path class="st0" d="M92.6,7.1l-1-0.8c-1-0.8-3.3-2.1-4.6-2.1H70.2l0,0H33.6L31,33.9l1.3-0.5h0.1h0.1c0,0,0.3,0,0.9,0
		c4.3,0,26.5,1.2,36.8,23.9c0.6,1.3,0.9,2.8,0.9,4.3v0.8c2.1,0,5.1,0,7.4,0h10.6c1.1,0,2-0.6,2.6-1.5l1.7-2.8c0.5-0.9,0.8-2,0.9-3.1
		l0.9-42.3C95.2,10.6,94.3,8.5,92.6,7.1z M82.5,58.3c-0.8,0.1-2,0.1-3.8,0.1h-3.8c-0.2-1-0.5-1.9-0.9-2.8
		C63.8,33.1,43,29.9,35.5,29.4l1.9-21.2h39.7c1.2,0,4.9,0.3,5.5,4.1C83.2,16.6,84.6,25.6,82.5,58.3z"/>
	<path class="st0" d="M138.4,114.1c-15,0-27.2-12.2-27.2-27.3s12.2-27.2,27.3-27.2c15,0,27.2,12.2,27.2,27.3
		c0,10.9-6.6,20.8-16.6,25C145.7,113.3,142.1,114.1,138.4,114.1z M138.4,72.6c-7.8,0-14.2,6.4-14.2,14.2s6.4,14.2,14.2,14.2
		s14.2-6.3,14.2-14.2l0,0C152.6,78.9,146.3,72.6,138.4,72.6L138.4,72.6z"/>
	<path class="st0" d="M165.7,56.7c-0.6-12-13.1-13.6-21.4-15.6c-6.8-1.6-37.9-4.4-48.6-5.3l-0.4,19.3c0,1.2-0.4,2.5-1,3.5l-1.7,2.8
		c-0.7,1.2-2,1.9-3.4,1.9h-3.1l2.5,27.4h18.9c-0.2-1.3-0.3-2.6-0.3-4c0-17.2,14-31.1,31.2-31.2l0,0h0.1c10.9,0,20.6,5.7,26.1,14.3
		c0.1-0.1,0.2-0.2,0.2-0.2S166.4,68.7,165.7,56.7z"/>
	<polygon class="st0" points="85.1,63.4 71.7,63.4 74.5,94.3 87.9,94.3 	"/>
	<path class="st0" d="M33.6,114.1C15,114,0,99,0,80.4s15.1-33.6,33.7-33.6s33.6,15.1,33.6,33.7c0,13.5-8.1,25.7-20.6,31
		C42.5,113.2,38.1,114.1,33.6,114.1z M33.6,63.4c-9.4,0-17,7.6-17,17s7.6,17,17,17s17-7.6,17-17c0-4.5-1.8-8.8-5-12
		C42.4,65.2,38.1,63.4,33.6,63.4z"/>
	<path class="st0" d="M70.2,67.1v-5.6c0-1.3-0.3-2.7-0.8-3.9C58.1,32.9,32.6,34.4,32.6,34.4l-8.3,3H11.1l-7,13.4l4.7,0.9
		c0,0,18.4-11.2,24-13.3c0.2,0,22.9-1.1,32.9,20.9c0.3,0.7,0.5,1.5,0.5,2.2v5.6L70.2,67.1z"/>
	<path class="st0" d="M28,1c0,0,6.9-0.6,11.2-0.9s29.9,0,29.9,0s22.1,1.2,28.1,3.3l-2.9,5.7L81.2,6.6L31.6,6.1L28,3.2
		C28,3.2,28,2.1,28,1z"/>
</g>
</svg>
