<svg xmlns="http://www.w3.org/2000/svg" viewBox="0 0 100 100">
  <defs>
    <style>
      .cls-1 {
        fill: gray;
      }
    </style>
  </defs>
  <g id="Layer_2" data-name="Layer 2">
    <g id="small">
      <path class="cls-1" d="M99.32,50.56a5.9,5.9,0,0,1-5.65-4.49l-.06-.26v-.27A5.88,5.88,0,0,1,97.91,40l.86-.27a47.81,47.81,0,0,0-3.08-9.44l-.69.21a5.83,5.83,0,0,1-2.32.5A5.72,5.72,0,0,1,88,28.55l-.1-.14-.07-.15a5.58,5.58,0,0,1,1.74-7l.61-.54a53.89,53.89,0,0,0-6.61-7.41l-.42.42A5.76,5.76,0,0,1,76,15l-.19-.11-.15-.14a5.76,5.76,0,0,1-1.31-7l.36-.8C73.09,6,71.58,5.23,70.19,4.58c-1.74-.74-3.19-1.31-4.5-1.76l-.26.58a5.69,5.69,0,0,1-5.38,4,7,7,0,0,1-.8-.05l-.17,0-.15,0a5.76,5.76,0,0,1-4-5.91v-1a45.38,45.38,0,0,0-5-.28,43.58,43.58,0,0,0-5,.28V.93A5.67,5.67,0,0,1,40.89,7l-.15,0-.16,0c-.22,0-.45,0-.68,0a5.7,5.7,0,0,1-5.35-3.77l-.39-.87a51.42,51.42,0,0,0-9,4l.28.63a5.89,5.89,0,0,1-1.16,7.13l-.17.16-.2.11a5.8,5.8,0,0,1-7-1l-.66-.58a46.11,46.11,0,0,0-6.66,7.36l.49.43a5.72,5.72,0,0,1,1.9,7l-.09.21-.14.18a5.87,5.87,0,0,1-6.8,2L4,29.8a46.68,46.68,0,0,0-3.1,9.38l.72.21a6,6,0,0,1,4.58,5.53V45A5.53,5.53,0,0,1,.82,50.56L0,50.63a49.47,49.47,0,0,0,1,9.8l.63-.06a5.75,5.75,0,0,1,6.43,3.31l.09.19,0,.21a5.7,5.7,0,0,1-3.06,6.37l-.82.44A51.84,51.84,0,0,0,9.2,79.4L9.84,79a5.73,5.73,0,0,1,7.19.47l.14.12.11.15A5.59,5.59,0,0,1,17,86.87l-.49.71a50.18,50.18,0,0,0,8,5.86l.41-.55A6,6,0,0,1,30,90.07a6.14,6.14,0,0,1,1.7.25l.19.06.18.09a5.57,5.57,0,0,1,2.67,6.62l-.21.83a50.17,50.17,0,0,0,9.62,2l.12-.63a5.81,5.81,0,0,1,5.09-5.13l.2,0,.19,0A5.69,5.69,0,0,1,54.93,99l.24,1A50.56,50.56,0,0,0,65,97.9l-.13-.67a5.86,5.86,0,0,1,2.58-6.72l.21-.12.23-.08A5.9,5.9,0,0,1,69.63,90a5.82,5.82,0,0,1,4.92,2.75l.52.74a53.16,53.16,0,0,0,8.05-5.78l-.39-.52a5.79,5.79,0,0,1-.3-7.2l.12-.16.14-.13a5.71,5.71,0,0,1,3.91-1.55,5.61,5.61,0,0,1,3.13.94l.86.46a44.39,44.39,0,0,0,5-8.57L95,70.67a5.9,5.9,0,0,1-3.36-6.44l0-.24.1-.23A5.75,5.75,0,0,1,97,60.35a5.57,5.57,0,0,1,1.08.11l.93.11a50.2,50.2,0,0,0,1-9.94ZM50,71A21,21,0,1,1,71,50,21,21,0,0,1,50,71Z"/>
    </g>
  </g>
</svg>
