<svg xmlns="http://www.w3.org/2000/svg" viewBox="0 0 304.02 115.41">
  <defs>
    <style>.cls-1{fill:#fff;}</style>
  </defs>
  <g id="Layer_2" data-name="Layer 2">
    <g id="Trailer">
      <g id="SlurrySpreader2Axle">
        <g id="SlurrySpreader2Axle_fl">
          <path class="cls-1" d="M22.84,47.61l0-.14V25.81h-.75V54.13a17.75,17.75,0,0,0,3.1,1.37Z"/>
          <polygon class="cls-1" points="48.13 0 51.8 6.56 76.09 6.56 78.87 0 48.13 0"/>
          <rect class="cls-1" x="55.55" y="14.56" width="17.09" height="2.09"/>
          <path class="cls-1" d="M16.27,12.33l-.62.5-.43.34c-.22.18-.43.37-.64.56l-.37.33-.69.69c-.09.1-.19.18-.27.28-.32.33-.63.67-.93,1a26.81,26.81,0,0,0-4,6.26c-.35.77-.67,1.55-1,2.35A32.43,32.43,0,0,0,5.52,35a30,30,0,0,0,6,19.16A24.59,24.59,0,0,0,15,57.77V48.62l-.09-.14c-.34-.57-.66-1.15-1-1.75-.14-.3-.28-.6-.41-.9-.27-.61-.5-1.24-.71-1.87a26.5,26.5,0,0,1-1.32-8.86,25.34,25.34,0,0,1,3.15-12c.1-.18.22-.35.33-.53V19.75h2V11.84a1.88,1.88,0,0,1-.23.16Z"/>
          <path class="cls-1" d="M27.39,63.13l-1.9-6.48a18.38,18.38,0,0,1-3.44-1.35v6.56a25.72,25.72,0,0,0,5.1,1.27Z"/>
          <path class="cls-1" d="M259,7.56H30.24l-.78,0-.65,0L28,7.75l-.64.08L26.66,8,26,8.06l-.72.15-.62.15L24,8.55l-.6.17L22.69,9l-.59.21-.67.26-.24.1v6.75l.36-.23c.24-.14.5-.25.75-.38s.69-.36,1.06-.52.55-.21.82-.31.72-.28,1.1-.39.59-.16.89-.23.75-.2,1.14-.27.64-.1,1-.14.78-.12,1.18-.15.68,0,1-.05.62,0,.94,0H259a3.59,3.59,0,0,1,3.59,3.59V77a14.38,14.38,0,0,0,5.09,1.42,3.85,3.85,0,0,0,.54,0l.37-.11V17.15A9.6,9.6,0,0,0,259,7.56Z"/>
          <polygon class="cls-1" points="36.34 80.39 42.9 80.39 42.9 77.83 39.35 77.83 39.35 77.83 39.35 20.25 42.9 20.25 42.9 17.69 36.34 17.69 36.34 80.39"/>
          <path class="cls-1" d="M43.9,17.65V84.41h14A30.91,30.91,0,0,1,88.4,58.55h54.35a30.89,30.89,0,0,1,30.48,25.86h72.86V75.73H260V17.65Z"/>
          <path class="cls-1" d="M294.88,90.25l-.05-1.06h-.12l-.2,0h-.1l-.26,0H294l-.44,0H291.9l-.63,0h-.17l-.84-.07-.24,0-.75-.09-.21,0-1-.17-.23,0-.81-.19-.25-.06q-.51-.14-1-.3l-.19-.06c-.29-.1-.58-.2-.86-.32l-.27-.1c-.35-.14-.69-.29-1-.46l-.12-.06c-.3-.16-.6-.32-.9-.5l-.26-.15c-.33-.21-.66-.42-1-.66a4,4,0,0,1-.53-.47c-1.28-1.4-1.74-3.93-2-6.47-.08-1-.14-1.9-.2-2.8a29.88,29.88,0,0,0-.3-3.16.94.94,0,0,0-.25-.43.76.76,0,0,0-.26-.15l-.1,0-.19,0a.65.65,0,0,0-.2,0l-.1,0a.73.73,0,0,0-.26.2h0a25.77,25.77,0,0,1-1.76,2c-.34.35-.7.7-1.07,1s-.75.69-1.14,1-.78.64-1.17.93a12.72,12.72,0,0,1-2,1.3l-.18.09a4.52,4.52,0,0,1-1,.34,5.21,5.21,0,0,1-.7.06h-.36l-.26,0-.44,0-.22,0-.64-.13-.08,0-.65-.17-.25-.08-.45-.14-.28-.09-.41-.15-.28-.11-.39-.15-.27-.11-.36-.15-.26-.12-.33-.15-.22-.1h0l-.31-.15-.2-.1-.28-.14-.16-.08-.27-.14-.08,0-.25-.13h0l-.24-.14H247.09V87.07l47.4,14.12H304V91h-9.11Z"/>
          <path class="cls-1" d="M12.17,102c-2.3,4.48-6,9.05-12.17,13.42H8.76A40.34,40.34,0,0,0,13,110.75a36.22,36.22,0,0,0,2.45-3.53c.47-.79.91-1.58,1.31-2.37s.75-1.57,1.08-2.35.61-1.56.87-2.34.49-1.55.69-2.31c.1-.39.2-.77.28-1.15.28-1.19.49-2.37.66-3.52.1-.65.18-1.28.24-1.91l0-.22c.07-.69.12-1.36.17-2s.07-1.27.1-1.88c.08-1.85.09-3.6.12-5.23H16c-.12,5.38,0,12.11-3.3,19.11C12.5,101.34,12.34,101.67,12.17,102Z"/>
          <polygon class="cls-1" points="13.84 68.02 17.48 66.46 19 65.82 22.68 64.13 14.99 64.13 13.84 64.13 13.84 68.02"/>
          <polygon class="cls-1" points="20.2 3.8 17.96 3.8 17.96 20.75 15.99 20.75 15.99 63.13 21.05 63.13 21.05 24.82 23.8 24.82 23.8 47.33 26.29 55.83 26.61 56.93 26.61 56.93 28.48 63.29 28.78 64.33 30.24 69.32 33.51 69.32 33.51 20.75 20.2 20.75 20.2 3.8"/>
          <polygon class="cls-1" points="17.29 79.44 14.99 80.42 13.84 80.91 22.94 80.91 22.94 77.03 18.39 78.97 17.29 79.44"/>
          <polygon class="cls-1" points="13.84 79.54 22.68 75.3 22.68 71.59 13.84 75.56 13.84 79.54"/>
          <polygon class="cls-1" points="13.84 69.99 13.84 73.97 18.26 71.85 22.68 69.73 22.68 65.93 20.47 66.94 13.84 69.99"/>
          <path class="cls-1" d="M112.5,79.34h0c-.24-.55-.49-1.09-.76-1.61-.06-.14-.13-.27-.2-.4-.27-.52-.55-1-.86-1.52h0c-.31-.49-.63-1-1-1.43l-.25-.35c-.34-.46-.69-.91-1-1.34l0,0c-.36-.42-.74-.83-1.12-1.24l-.31-.3c-.39-.4-.79-.79-1.21-1.16l0,0c-.41-.36-.84-.7-1.27-1l-.34-.26c-.44-.33-.89-.65-1.35-1l0,0c-.45-.3-.91-.57-1.38-.84l-.38-.21c-.48-.26-1-.51-1.47-.74l0,0c-.49-.23-1-.43-1.49-.63l-.4-.15c-.52-.19-1-.37-1.57-.52l0,0c-.52-.15-1-.28-1.57-.4L94,64c-.54-.11-1.08-.22-1.63-.3h0q-.81-.12-1.62-.18l-.43,0c-.55,0-1.11-.06-1.67-.06l-1.13,0h-.13c-.32,0-.65,0-1,.07l-.31,0-1,.13-.25,0c-.3,0-.6.1-.9.16l-.37.06-.7.16-.56.13-.68.19-.58.16-.6.2c-.64.21-1.27.44-1.9.71A26,26,0,0,0,62.61,89.44a27.2,27.2,0,0,0,.18,3.15A26,26,0,0,0,73,110.25a25.12,25.12,0,0,0,2.76,1.8l.78.42a25.91,25.91,0,0,0,9.17,2.79l.27,0q1.26.12,2.55.12l.76,0h.56c.25,0,.5,0,.75-.06l.54,0c.25,0,.5-.06.75-.09l.53-.07c.23,0,.45-.08.68-.12l.6-.1.58-.14.68-.15.48-.14.77-.22.23-.07c.74-.24,1.48-.51,2.2-.82a26,26,0,0,0,15.87-23.92q0-.63,0-1.26a26.22,26.22,0,0,0-.47-3.82c-.17-.84-.39-1.69-.64-2.52A25.83,25.83,0,0,0,112.5,79.34ZM102.71,90c0,.32,0,.64,0,1s-.11.73-.17,1.09c0,.1,0,.21,0,.32s-.12.46-.18.69-.1.45-.17.66l-.16.45c-.1.28-.2.58-.32.86-.05.13-.12.25-.18.38-.14.29-.26.58-.41.85,0,.1-.12.18-.17.27a10.3,10.3,0,0,1-.55.9,1,1,0,0,1-.09.13q-.34.49-.72,1c-.06.08-.13.14-.19.21-.24.28-.47.55-.73.8,0,.06-.12.1-.17.16-.27.26-.55.52-.83.75-.1.08-.2.14-.29.22-.26.2-.53.41-.8.6l-.39.23q-.39.25-.78.48l-.5.24c-.24.12-.49.25-.74.35s-.43.16-.65.24-.43.17-.65.24-.53.14-.8.2-.37.11-.56.15-.63.1-1,.14c-.16,0-.3.06-.46.07-.35,0-.71,0-1.08.06l-.36,0h0a14.22,14.22,0,0,1-9.34-3.52,15.31,15.31,0,0,1-1.54-1.58A14.25,14.25,0,0,1,75,93.66a14,14,0,0,1-.64-4.22A13.59,13.59,0,0,1,74.47,88a.78.78,0,0,1,0-.16,14.16,14.16,0,0,1,1-3.91h0a14.23,14.23,0,0,1,7.55-7.53l.18-.07c.36-.15.74-.29,1.12-.41l.26-.06a9.84,9.84,0,0,1,1.1-.28l.42-.07c.33-.06.65-.11,1-.15s.45,0,.68,0,.51,0,.77,0h0c.24,0,.49,0,.74,0s.43,0,.64,0,.52.07.77.11.41.05.6.09.52.13.78.2.38.08.57.14.52.18.78.28l.52.19a7.51,7.51,0,0,1,.76.36c.16.08.33.14.49.23s.53.31.8.48l.38.23c.27.18.53.39.79.59l.33.24a15.07,15.07,0,0,1,2.8,3.11,14,14,0,0,1,1.77,3.74,14.22,14.22,0,0,1,.61,4.12C102.74,89.63,102.72,89.79,102.71,90Z"/>
          <path class="cls-1" d="M166.5,79.34h0c-.24-.55-.49-1.09-.76-1.61-.06-.14-.13-.27-.2-.4-.27-.52-.55-1-.86-1.52h0c-.31-.49-.63-1-1-1.43l-.25-.35c-.34-.46-.69-.91-1.05-1.34l0,0c-.36-.42-.74-.83-1.12-1.24l-.31-.3c-.39-.4-.79-.79-1.21-1.16l0,0c-.41-.36-.84-.7-1.27-1l-.34-.26c-.44-.33-.89-.65-1.35-1l0,0c-.46-.3-.92-.57-1.39-.84l-.38-.21c-.48-.26-1-.51-1.47-.74l0,0c-.49-.23-1-.43-1.49-.63l-.4-.15c-.52-.19-1-.37-1.57-.52l0,0c-.52-.15-1-.28-1.57-.4L148,64c-.54-.11-1.08-.22-1.63-.3h0q-.81-.12-1.62-.18l-.43,0c-.55,0-1.11-.06-1.67-.06l-1.14,0h-.12c-.33,0-.65,0-1,.07l-.3,0-1.05.13-.22,0c-.3,0-.6.1-.91.16l-.36.06-.7.16-.56.13-.68.19-.58.16-.6.2c-.64.21-1.27.44-1.9.71a26,26,0,0,0-15.86,23.92,27.2,27.2,0,0,0,.18,3.15A26,26,0,0,0,127,110.25a25.36,25.36,0,0,0,3.16,2,25.75,25.75,0,0,0,12.37,3.13l.76,0h.56c.25,0,.5,0,.75-.06l.54,0c.25,0,.5-.06.75-.09l.53-.07c.23,0,.45-.08.68-.12l.6-.1.58-.14.68-.15.48-.14.77-.22.23-.07c.74-.24,1.48-.51,2.2-.82a26,26,0,0,0,15.87-23.92q0-.63,0-1.26a26.22,26.22,0,0,0-.47-3.82c-.17-.84-.39-1.69-.64-2.52A25.83,25.83,0,0,0,166.5,79.34ZM156.71,90c0,.32,0,.64,0,1s-.11.73-.17,1.09c0,.1,0,.21-.05.32s-.12.46-.18.69-.1.45-.17.66l-.16.45c-.1.28-.2.58-.32.86-.05.13-.12.25-.18.38-.14.29-.26.58-.41.85-.05.1-.12.18-.17.27a10.3,10.3,0,0,1-.55.9,1,1,0,0,1-.09.13q-.34.49-.72,1c-.06.08-.13.14-.19.21-.24.28-.47.55-.73.8-.05.06-.12.1-.17.16-.27.26-.55.52-.83.75-.1.08-.2.14-.29.22-.26.2-.53.41-.8.6l-.39.23q-.39.25-.78.48l-.5.24c-.24.12-.49.25-.74.35s-.43.16-.65.24-.43.17-.65.24l-.81.21-.55.14c-.32.06-.65.1-1,.15-.15,0-.29.05-.44.06-.35,0-.72,0-1.08.06l-.36,0h0A14.2,14.2,0,0,1,130.1,96.2,13.25,13.25,0,0,1,129,93.66a14,14,0,0,1-.64-4.22,13.59,13.59,0,0,1,.08-1.44.78.78,0,0,1,0-.16,14.16,14.16,0,0,1,1-3.91h0a14.23,14.23,0,0,1,7.55-7.53l.18-.07c.36-.15.74-.29,1.12-.41l.26-.06a9.84,9.84,0,0,1,1.1-.28l.42-.07c.33-.06.65-.11,1-.15s.45,0,.68,0,.51,0,.77,0h0c.24,0,.49,0,.74,0s.43,0,.64,0,.52.07.77.11.41.05.6.09.52.13.78.2.38.08.57.14.52.18.78.28l.52.19a7.51,7.51,0,0,1,.76.36c.16.08.33.14.49.23s.53.31.8.48l.38.23c.27.18.53.39.79.59l.33.24a15.07,15.07,0,0,1,2.8,3.11,14,14,0,0,1,1.77,3.74,14.22,14.22,0,0,1,.61,4.12C156.74,89.63,156.72,89.79,156.71,90Z"/>
        </g>
      </g>
    </g>
  </g>
</svg>