<svg xmlns="http://www.w3.org/2000/svg" viewBox="0 0 960 220" role="img" aria-labelledby="title desc">
  <title id="title">Logomarca SoloCompactado IPT</title>
  <desc id="desc">
    Logomarca vetorial gerada com curvas matemáticas: superfície por seno y = 54 + 7*sin(x)
    e perfil de sulco por gaussiana invertida y = 124 + 2.5*(1 - exp(-((x-180)^2)/(2*36^2))).
  </desc>

  <defs>
    <linearGradient id="bgGrad" x1="0%" y1="0%" x2="100%" y2="100%">
      <stop offset="0%" stop-color="#f7fbf6"/>
      <stop offset="100%" stop-color="#eef6ee"/>
    </linearGradient>
    <linearGradient id="soilGrad" x1="0%" y1="0%" x2="0%" y2="100%">
      <stop offset="0%" stop-color="#b58a66"/>
      <stop offset="100%" stop-color="#8d6445"/>
    </linearGradient>
  </defs>

  <g transform="translate(18,20)">
    <rect x="0" y="0" width="344" height="180" rx="20" fill="url(#bgGrad)" stroke="#cedccd" stroke-width="2"/>

    <!-- Camada de solo simplificada -->
    <path d="M 24 62 L 24 154 L 334 154 L 334 62" fill="url(#soilGrad)" opacity="0.22"/>

    <!-- Superfície por função seno -->
    <polyline
      points="30.0,54.0 36.0,54.9 42.0,55.7 48.0,56.6 54.0,57.4 60.0,58.1 66.0,58.8 72.0,59.4 78.0,59.9 84.0,60.3 90.0,60.7 96.0,60.9 102.0,61.0 108.0,61.0 114.0,60.9 120.0,60.7 126.0,60.3 132.0,59.9 138.0,59.4 144.0,58.8 150.0,58.1 156.0,57.4 162.0,56.6 168.0,55.7 174.0,54.9 180.0,54.0 186.0,53.1 192.0,52.3 198.0,51.4 204.0,50.6 210.0,49.9 216.0,49.2 222.0,48.6 228.0,48.1 234.0,47.7 240.0,47.3 246.0,47.1 252.0,47.0 258.0,47.0 264.0,47.1 270.0,47.3 276.0,47.7 282.0,48.1 288.0,48.6 294.0,49.2 300.0,49.9 306.0,50.6 312.0,51.4 318.0,52.3 324.0,53.1 330.0,54.0"
      fill="none"
      stroke="#2f9a5d"
      stroke-width="4"
      stroke-linecap="round"
      stroke-linejoin="round"
    />

    <!-- Sulco por função gaussiana invertida -->
    <polyline
      points="32.0,126.5 36.0,126.5 40.0,126.5 44.0,126.5 48.0,126.5 52.0,126.5 56.0,126.5 60.0,126.5 64.0,126.5 68.0,126.5 72.0,126.5 76.0,126.5 80.0,126.4 84.0,126.4 88.0,126.4 92.0,126.4 96.0,126.3 100.0,126.3 104.0,126.2 108.0,126.2 112.0,126.1 116.0,126.0 120.0,125.9 124.0,125.8 128.0,125.6 132.0,125.5 136.0,125.3 140.0,125.2 144.0,125.0 148.0,124.8 152.0,124.7 156.0,124.5 160.0,124.4 164.0,124.2 168.0,124.1 172.0,124.1 176.0,124.0 180.0,124.0 184.0,124.0 188.0,124.1 192.0,124.1 196.0,124.2 200.0,124.4 204.0,124.5 208.0,124.7 212.0,124.8 216.0,125.0 220.0,125.2 224.0,125.3 228.0,125.5 232.0,125.6 236.0,125.8 240.0,125.9 244.0,126.0 248.0,126.1 252.0,126.2 256.0,126.2 260.0,126.3 264.0,126.3 268.0,126.4 272.0,126.4 276.0,126.4 280.0,126.4 284.0,126.5 288.0,126.5 292.0,126.5 296.0,126.5 300.0,126.5 304.0,126.5 308.0,126.5 312.0,126.5 316.0,126.5 320.0,126.5 324.0,126.5 328.0,126.5"
      fill="none"
      stroke="#784f35"
      stroke-width="3.2"
      stroke-linecap="round"
      stroke-linejoin="round"
    />
    <polyline
      points="32.0,126.5 36.0,126.5 40.0,126.5 44.0,126.5 48.0,126.5 52.0,126.5 56.0,126.5 60.0,126.5 64.0,126.5 68.0,126.5 72.0,126.5 76.0,126.5 80.0,126.4 84.0,126.4 88.0,126.4 92.0,126.4 96.0,126.3 100.0,126.3 104.0,126.2 108.0,126.2 112.0,126.1 116.0,126.0 120.0,125.9 124.0,125.8 128.0,125.6 132.0,125.5 136.0,125.3 140.0,125.2 144.0,125.0 148.0,124.8 152.0,124.7 156.0,124.5 160.0,124.4 164.0,124.2 168.0,124.1 172.0,124.1 176.0,124.0 180.0,124.0 184.0,124.0 188.0,124.1 192.0,124.1 196.0,124.2 200.0,124.4 204.0,124.5 208.0,124.7 212.0,124.8 216.0,125.0 220.0,125.2 224.0,125.3 228.0,125.5 232.0,125.6 236.0,125.8 240.0,125.9 244.0,126.0 248.0,126.1 252.0,126.2 256.0,126.2 260.0,126.3 264.0,126.3 268.0,126.4 272.0,126.4 276.0,126.4 280.0,126.4 284.0,126.5 288.0,126.5 292.0,126.5 296.0,126.5 300.0,126.5 304.0,126.5 308.0,126.5 312.0,126.5 316.0,126.5 320.0,126.5 324.0,126.5 328.0,126.5"
      transform="translate(0,14)"
      fill="none"
      stroke="#8a5d3f"
      stroke-width="2.4"
      stroke-linecap="round"
      opacity="0.9"
    />
    <polyline
      points="32.0,126.5 36.0,126.5 40.0,126.5 44.0,126.5 48.0,126.5 52.0,126.5 56.0,126.5 60.0,126.5 64.0,126.5 68.0,126.5 72.0,126.5 76.0,126.5 80.0,126.4 84.0,126.4 88.0,126.4 92.0,126.4 96.0,126.3 100.0,126.3 104.0,126.2 108.0,126.2 112.0,126.1 116.0,126.0 120.0,125.9 124.0,125.8 128.0,125.6 132.0,125.5 136.0,125.3 140.0,125.2 144.0,125.0 148.0,124.8 152.0,124.7 156.0,124.5 160.0,124.4 164.0,124.2 168.0,124.1 172.0,124.1 176.0,124.0 180.0,124.0 184.0,124.0 188.0,124.1 192.0,124.1 196.0,124.2 200.0,124.4 204.0,124.5 208.0,124.7 212.0,124.8 216.0,125.0 220.0,125.2 224.0,125.3 228.0,125.5 232.0,125.6 236.0,125.8 240.0,125.9 244.0,126.0 248.0,126.1 252.0,126.2 256.0,126.2 260.0,126.3 264.0,126.3 268.0,126.4 272.0,126.4 276.0,126.4 280.0,126.4 284.0,126.5 288.0,126.5 292.0,126.5 296.0,126.5 300.0,126.5 304.0,126.5 308.0,126.5 312.0,126.5 316.0,126.5 320.0,126.5 324.0,126.5 328.0,126.5"
      transform="translate(0,28)"
      fill="none"
      stroke="#9d6e4b"
      stroke-width="2.0"
      stroke-linecap="round"
      opacity="0.85"
    />

    <!-- Roda estilizada -->
    <circle cx="180" cy="34" r="16" fill="#2f3538"/>
    <circle cx="180" cy="34" r="8.5" fill="#9aa4a8"/>
    <path d="M 167 34 H 193 M 180 21 V 47 M 171 25 L 189 43 M 189 25 L 171 43"
          stroke="#d8dee2" stroke-width="1.2" opacity="0.7"/>
  </g>

  <g transform="translate(390,38)">
    <text x="0" y="62" font-family="Segoe UI, Arial, sans-serif" font-size="56" font-weight="700" fill="#2a3c2f">
      SoloCompactado
    </text>
    <text x="4" y="102" font-family="Segoe UI, Arial, sans-serif" font-size="28" font-weight="600" fill="#4f6a56">
      IPT
    </text>
    <text x="4" y="136" font-family="Segoe UI, Arial, sans-serif" font-size="19" fill="#5c5c5c">
      Terramecânica • Compactação • Tráfego Agrícola
    </text>
  </g>
</svg>
